<?xml version="1.0" encoding="UTF-8" standalone="no"?>
<!DOCTYPE svg PUBLIC "-//W3C//DTD SVG 1.1//EN"
 "http://www.w3.org/Graphics/SVG/1.1/DTD/svg11.dtd">
<!-- Generated by graphviz version 9.0.0 (20230911.1827)
 -->
<!-- Pages: 1 -->
<svg width="1145pt" height="128pt"
 viewBox="0.00 0.00 1145.00 128.00" xmlns="http://www.w3.org/2000/svg" xmlns:xlink="http://www.w3.org/1999/xlink">
<g id="graph0" class="graph" transform="scale(1 1) rotate(0) translate(4 124)">
<polygon fill="white" stroke="none" points="-4,4 -4,-124 1141,-124 1141,4 -4,4"/>
<!-- 1398885118480 -->
<g id="node1" class="node">
<title>1398885118480</title>
<polygon fill="none" stroke="black" points="945.75,-27.5 945.75,-63.5 1137,-63.5 1137,-27.5 945.75,-27.5"/>
<text text-anchor="middle" x="957.88" y="-40.2" font-family="Times New Roman,serif" font-size="14.00">L</text>
<polyline fill="none" stroke="black" points="970,-27.75 970,-63.5"/>
<text text-anchor="middle" x="1012.5" y="-40.2" font-family="Times New Roman,serif" font-size="14.00">data &#45;0.0060</text>
<polyline fill="none" stroke="black" points="1055,-27.75 1055,-63.5"/>
<text text-anchor="middle" x="1096" y="-40.2" font-family="Times New Roman,serif" font-size="14.00">grad 1.0000</text>
</g>
<!-- 1398885118480tanh -->
<g id="node2" class="node">
<title>1398885118480tanh</title>
<ellipse fill="none" stroke="black" cx="882.75" cy="-45.5" rx="27" ry="18"/>
<text text-anchor="middle" x="882.75" y="-40.08" font-family="Times New Roman,serif" font-size="14.00">tanh</text>
</g>
<!-- 1398885118480tanh&#45;&gt;1398885118480 -->
<g id="edge1" class="edge">
<title>1398885118480tanh&#45;&gt;1398885118480</title>
<path fill="none" stroke="black" d="M909.97,-45.5C917.13,-45.5 925.36,-45.5 934.12,-45.5"/>
<polygon fill="black" stroke="black" points="933.96,-49 943.96,-45.5 933.96,-42 933.96,-49"/>
</g>
<!-- 1398876025936 -->
<g id="node3" class="node">
<title>1398876025936</title>
<polygon fill="none" stroke="black" points="316.88,-55.5 316.88,-91.5 506.62,-91.5 506.62,-55.5 316.88,-55.5"/>
<text text-anchor="middle" x="328.25" y="-68.2" font-family="Times New Roman,serif" font-size="14.00">c</text>
<polyline fill="none" stroke="black" points="339.62,-55.75 339.62,-91.5"/>
<text text-anchor="middle" x="379.88" y="-68.2" font-family="Times New Roman,serif" font-size="14.00">data 6.0000</text>
<polyline fill="none" stroke="black" points="420.12,-55.75 420.12,-91.5"/>
<text text-anchor="middle" x="463.38" y="-68.2" font-family="Times New Roman,serif" font-size="14.00">grad &#45;0.0010</text>
</g>
<!-- 1398882572560* -->
<g id="node7" class="node">
<title>1398882572560*</title>
<ellipse fill="none" stroke="black" cx="570" cy="-45.5" rx="27" ry="18"/>
<text text-anchor="middle" x="570" y="-40.08" font-family="Times New Roman,serif" font-size="14.00">*</text>
</g>
<!-- 1398876025936&#45;&gt;1398882572560* -->
<g id="edge7" class="edge">
<title>1398876025936&#45;&gt;1398882572560*</title>
<path fill="none" stroke="black" d="M506.8,-56.65C515.72,-55.05 524.36,-53.5 532.22,-52.09"/>
<polygon fill="black" stroke="black" points="532.76,-55.55 541.98,-50.34 531.52,-48.66 532.76,-55.55"/>
</g>
<!-- 1398876025936+ -->
<g id="node4" class="node">
<title>1398876025936+</title>
<ellipse fill="none" stroke="black" cx="253.5" cy="-73.5" rx="27" ry="18"/>
<text text-anchor="middle" x="253.5" y="-68.08" font-family="Times New Roman,serif" font-size="14.00">+</text>
</g>
<!-- 1398876025936+&#45;&gt;1398876025936 -->
<g id="edge2" class="edge">
<title>1398876025936+&#45;&gt;1398876025936</title>
<path fill="none" stroke="black" d="M280.65,-73.5C287.86,-73.5 296.15,-73.5 304.98,-73.5"/>
<polygon fill="black" stroke="black" points="304.9,-77 314.9,-73.5 304.9,-70 304.9,-77"/>
</g>
<!-- 1398882317904 -->
<g id="node5" class="node">
<title>1398882317904</title>
<polygon fill="none" stroke="black" points="0.75,-83.5 0.75,-119.5 189.75,-119.5 189.75,-83.5 0.75,-83.5"/>
<text text-anchor="middle" x="11.75" y="-96.2" font-family="Times New Roman,serif" font-size="14.00">a</text>
<polyline fill="none" stroke="black" points="22.75,-83.75 22.75,-119.5"/>
<text text-anchor="middle" x="63" y="-96.2" font-family="Times New Roman,serif" font-size="14.00">data 4.0000</text>
<polyline fill="none" stroke="black" points="103.25,-83.75 103.25,-119.5"/>
<text text-anchor="middle" x="146.5" y="-96.2" font-family="Times New Roman,serif" font-size="14.00">grad &#45;0.0010</text>
</g>
<!-- 1398882317904&#45;&gt;1398876025936+ -->
<g id="edge4" class="edge">
<title>1398882317904&#45;&gt;1398876025936+</title>
<path fill="none" stroke="black" d="M189.85,-84.73C199.02,-83.08 207.89,-81.49 215.94,-80.05"/>
<polygon fill="black" stroke="black" points="216.35,-83.53 225.58,-78.32 215.12,-76.64 216.35,-83.53"/>
</g>
<!-- 1398882572560 -->
<g id="node6" class="node">
<title>1398882572560</title>
<polygon fill="none" stroke="black" points="633,-27.5 633,-63.5 819.75,-63.5 819.75,-27.5 633,-27.5"/>
<text text-anchor="middle" x="642.88" y="-40.2" font-family="Times New Roman,serif" font-size="14.00"> </text>
<polyline fill="none" stroke="black" points="652.75,-27.75 652.75,-63.5"/>
<text text-anchor="middle" x="695.25" y="-40.2" font-family="Times New Roman,serif" font-size="14.00">data &#45;0.0060</text>
<polyline fill="none" stroke="black" points="737.75,-27.75 737.75,-63.5"/>
<text text-anchor="middle" x="778.75" y="-40.2" font-family="Times New Roman,serif" font-size="14.00">grad 1.0000</text>
</g>
<!-- 1398882572560&#45;&gt;1398885118480tanh -->
<g id="edge8" class="edge">
<title>1398882572560&#45;&gt;1398885118480tanh</title>
<path fill="none" stroke="black" d="M819.85,-45.5C828.26,-45.5 836.42,-45.5 843.9,-45.5"/>
<polygon fill="black" stroke="black" points="843.9,-49 853.9,-45.5 843.9,-42 843.9,-49"/>
</g>
<!-- 1398882572560*&#45;&gt;1398882572560 -->
<g id="edge3" class="edge">
<title>1398882572560*&#45;&gt;1398882572560</title>
<path fill="none" stroke="black" d="M597.19,-45.5C604.32,-45.5 612.52,-45.5 621.23,-45.5"/>
<polygon fill="black" stroke="black" points="621,-49 631,-45.5 621,-42 621,-49"/>
</g>
<!-- 1398876269968 -->
<g id="node8" class="node">
<title>1398876269968</title>
<polygon fill="none" stroke="black" points="0,-28.5 0,-64.5 190.5,-64.5 190.5,-28.5 0,-28.5"/>
<text text-anchor="middle" x="11.75" y="-41.2" font-family="Times New Roman,serif" font-size="14.00">b</text>
<polyline fill="none" stroke="black" points="23.5,-28.75 23.5,-64.5"/>
<text text-anchor="middle" x="63.75" y="-41.2" font-family="Times New Roman,serif" font-size="14.00">data 2.0000</text>
<polyline fill="none" stroke="black" points="104,-28.75 104,-64.5"/>
<text text-anchor="middle" x="147.25" y="-41.2" font-family="Times New Roman,serif" font-size="14.00">grad &#45;0.0010</text>
</g>
<!-- 1398876269968&#45;&gt;1398876025936+ -->
<g id="edge6" class="edge">
<title>1398876269968&#45;&gt;1398876025936+</title>
<path fill="none" stroke="black" d="M190.75,-62.83C199.54,-64.35 208.04,-65.82 215.78,-67.15"/>
<polygon fill="black" stroke="black" points="214.94,-70.56 225.39,-68.81 216.13,-63.66 214.94,-70.56"/>
</g>
<!-- 1398882572752 -->
<g id="node9" class="node">
<title>1398882572752</title>
<polygon fill="none" stroke="black" points="316.5,-0.5 316.5,-36.5 507,-36.5 507,-0.5 316.5,-0.5"/>
<text text-anchor="middle" x="328.25" y="-13.2" font-family="Times New Roman,serif" font-size="14.00">d</text>
<polyline fill="none" stroke="black" points="340,-0.75 340,-36.5"/>
<text text-anchor="middle" x="382.5" y="-13.2" font-family="Times New Roman,serif" font-size="14.00">data &#45;0.0010</text>
<polyline fill="none" stroke="black" points="425,-0.75 425,-36.5"/>
<text text-anchor="middle" x="466" y="-13.2" font-family="Times New Roman,serif" font-size="14.00">grad 5.9998</text>
</g>
<!-- 1398882572752&#45;&gt;1398882572560* -->
<g id="edge5" class="edge">
<title>1398882572752&#45;&gt;1398882572560*</title>
<path fill="none" stroke="black" d="M507.25,-34.83C516.04,-36.35 524.54,-37.82 532.28,-39.15"/>
<polygon fill="black" stroke="black" points="531.44,-42.56 541.89,-40.81 532.63,-35.66 531.44,-42.56"/>
</g>
</g>
</svg>
